# xmcd CD database file
#
# Track frame offsets:
#	150
#	22138
#	43136
#	62806
#	84344
#	104860
#	122936
#	142068
#	162388
#	181847
#	202482
#	223644
#	244231
#	264332
#
# Disc length: 3764 seconds
#
# Revision: 1
# Processed by: cddbd v1.5.2PL0 Copyright (c) Steve Scherf et al.
# Submitted via: CDex 1.70beta2
#
DISCID=e10eb20e
DTITLE=GRUPO GALE - INSTINTO
DYEAR=2009
DGENRE=Salsa
TTITLE0=QUIZAS MANANA
TTITLE1=SI ELLA SUPIERA
TTITLE2=SIN TI NO PUEDO
TTITLE3=DIME QUE NO PASO
TTITLE4=MI PRIMER AMOR
TTITLE5=QUE QUIERES DE MI
TTITLE6=NO PUEDO NO DEBO
TTITLE7=ME GUSTAS
TTITLE8=AMOR DE VERDAD
TTITLE9=SE MUERE
TTITLE10=RECUERDO BONITO
TTITLE11=ATREVETE A SONAR
TTITLE12=ME ENAMORE SIN PENSARLO
TTITLE13=GRACIAS A TI
EXTD=YEAR: 2009
EXTT0=
EXTT1=
EXTT2=
EXTT3=
EXTT4=
EXTT5=
EXTT6=
EXTT7=
EXTT8=
EXTT9=
EXTT10=
EXTT11=
EXTT12=
EXTT13=
PLAYORDER=
